PathFileType	4	(X/Y/Z)	C:\Users\°ÂÌØÂü\Desktop\20210112\bx_y_0_502-Unnamed.trc
DataRate	CameraRate	NumFrames	NumMarkers	Units	OrigDataRate	OrigDataStartFrame	OrigNumFrames
50.00	50.00	       7	0	mm	50.00	141	       560
Frame#	Time	
		

141	2.800	-323.91418	95.85829	1704.40271	-494.86157	278.50342	1455.80469	-727.07294	284.41144	878.54266	-670.70319	-4.25850	806.80389	-664.82245	218.41777	815.54987	-783.79120	252.79500	634.44550	-761.31036	-54.97553	733.01428	-718.10333	209.63290	536.19257	-809.14185	259.21136	496.39481	-663.67096	-67.93519	161.85403	-517.88928	-72.72845	142.97519	-722.19910	75.49915	219.09216	-604.44659	20.47157	166.81317	-676.46246	54.84618	159.66887	-716.16431	155.45390	218.83458	-798.14771	175.06259	182.84842	-774.69165	224.79109	203.33438	-595.89679	222.51471	173.68243	-882.51044	296.12030	144.67557	-560.85071	258.88828	165.42786	-667.31433	300.28107	159.12885	-629.61664	306.70499	161.43333	-528.06403	304.12115	146.28979	-491.74197	-82.59361	1448.18408	-874.12964	98.86924	1076.70630	-770.49615	-7.32861	205.29771	-796.75970	52.77961	174.68288	-803.18042	-35.03619	483.39572	-560.05310	-37.17595	163.44781	-876.02838	-78.54763	141.55200	-683.38763	-2.76160	1037.63416	-766.53723	-28.28726	612.29944	-768.68988	-24.62114	566.83783	-676.47491	174.66661	158.90256	-622.02948	-78.09202	158.80605	-500.62738	94.21903	1322.81592	-669.80499	218.14114	1055.24414	-746.61316	-68.22933	866.34058				-712.24585	20.30454	525.87585				-737.06952	147.16252	571.98761	-778.42700	249.37990	572.66949				-741.75293	80.46201	572.92212	
142	2.820	-316.47244	95.19247	1697.23206	-489.96930	278.76041	1450.90759	-729.69855	283.90579	877.50446	-672.35345	-4.08869	806.75409	-667.22931	218.63950	815.23035	-785.12018	252.85986	634.17218	-763.24426	-54.85590	733.03448	-718.97906	209.47456	536.25623	-810.06927	259.38019	495.79324	-663.69580	-68.11226	161.73576	-518.02625	-72.60135	142.87833	-722.33124	75.42651	218.95605	-604.44269	20.47291	166.83154	-676.51343	54.80486	159.84573	-716.16431	155.45390	218.83458	-798.28400	175.06796	182.93300	-774.51990	225.13179	202.79201	-595.66278	222.39799	173.72784	-882.39606	296.09891	144.73637	-560.65527	258.81580	164.99695	-667.21429	300.13748	159.29048	-629.59430	306.76935	161.43687	-528.08026	303.98328	146.32237	-487.60382	-82.72633	1443.14722	-875.85321	98.63843	1077.27539	-770.77161	-7.63242	205.78185	-796.77277	52.70780	174.71732	-804.07928	-35.04428	483.00525	-560.07495	-37.13859	163.45056	-876.13446	-78.66106	141.72231	-685.66675	-2.33299	1036.37134	-767.62421	-28.52609	612.39618	-769.67749	-24.33899	566.42749	-676.50079	174.57681	159.06369	-622.03662	-78.12589	158.80081	-498.29718	93.85661	1318.32642	-671.67413	217.80641	1054.08972	-748.56897	-68.27268	866.38922				-713.18555	20.14710	525.60034				-738.05396	147.19145	571.85870	-779.12390	249.22803	572.61456				-742.72296	80.32246	572.62854	
143	2.840	-309.31271	94.52363	1689.71765	-485.59872	277.19339	1445.73047	-731.25018	284.57965	878.39252	-674.40509	-4.15737	806.41089	-668.93195	218.87599	815.22717	-786.50922	252.85959	633.78552	-765.23065	-54.89151	732.64703	-720.39374	209.62082	535.98517	-811.12592	259.79480	495.61053	-663.69720	-68.14803	161.93823	-518.01178	-72.70105	143.30768	-722.38715	75.20065	218.69167	-604.52777	20.31763	166.75734	-676.51343	54.80486	159.84573	-716.41077	155.42134	218.86176	-798.21918	175.13190	182.86308	-774.68732	225.15340	202.65443	-595.74585	222.38638	173.58922	-882.62708	296.25787	144.73608	-560.71124	258.86453	164.69501	-667.29901	300.22662	159.22369	-629.65338	306.75833	161.43478	-528.01276	304.04163	146.31586	-482.92902	-83.19256	1437.15466	-877.33606	99.10873	1077.74609	-770.55499	-7.29005	205.30128	-796.74152	52.54004	174.61189	-804.96039	-34.99322	482.73404	-560.02454	-37.07315	163.48190	-876.18134	-78.72787	141.53189	-687.82642	-2.32178	1034.97729	-769.21704	-28.39378	612.06671	-770.56427	-24.75257	566.38147	-676.82782	174.91277	159.04762	-621.84424	-78.27962	158.51511				-673.51282	217.69220	1053.16394	-750.89996	-68.49369	866.02679				-714.26007	20.02936	526.05841				-739.80505	147.65739	571.73230	-780.55109	249.30305	572.17755				-743.86548	80.56891	572.44476	
144	2.860	-302.30164	93.35880	1682.05835	-480.61884	276.84665	1440.62756	-733.61841	284.64236	877.70868	-676.78333	-4.13099	806.13239	-670.81952	218.92041	815.01672	-787.93964	253.15874	633.44623	-766.91888	-55.26694	732.37323	-720.98816	209.69951	536.17535	-811.94952	260.14783	495.26294	-663.69580	-68.11226	161.73576	-518.03546	-72.68218	143.16911	-722.38715	75.20065	218.69167	-604.53589	20.41152	166.71832	-676.51343	54.80486	159.84573	-716.55658	155.47214	218.99153	-798.52496	175.27219	182.93240	-774.72180	225.09137	202.56219	-595.77771	222.41606	173.63591	-882.45593	296.22400	144.77756	-560.78149	258.86331	164.80312	-667.17731	300.08414	159.16507	-629.60138	307.01440	161.78236	-527.99731	304.08679	146.20360	-479.17001	-83.74140	1431.64746	-878.80963	98.61279	1078.01196	-770.76611	-7.44252	205.56679	-796.84637	52.40406	174.64285	-805.66486	-35.28618	482.68320	-560.02197	-37.13776	163.53030	-876.18134	-78.72787	141.53189	-690.11621	-2.48131	1034.57678	-770.25391	-28.74022	612.38428	-771.65576	-24.06292	566.12939	-676.80286	174.66005	159.54427	-621.97644	-78.17069	158.53967				-675.58435	217.81306	1052.03406	-753.18060	-68.09149	865.59625				-715.24670	20.08997	525.60724				-740.52313	147.56053	571.61462	-781.59583	249.33667	571.93109				-745.17877	80.38271	572.13153	
145	2.880	-295.31760	92.81421	1674.41785	-476.52441	275.97327	1435.20361	-735.57709	284.73901	877.27753	-678.49969	-4.27066	805.85712	-672.82892	218.90202	814.65222	-789.37018	253.77071	633.64636	-770.15405	-56.26094	731.74841	-722.77484	209.57167	536.01874	-812.73053	260.24545	495.33148	-663.69580	-68.11226	161.73576	-517.90723	-72.69754	143.20152	-722.57452	75.10739	218.75861	-604.56732	20.34765	166.86389	-676.52063	54.70865	159.99471	-716.76520	155.43951	219.17578	-798.66791	175.22142	183.07288	-774.72467	225.22533	202.50967	-595.83801	222.46219	173.63707	-882.56763	296.16724	144.62521	-560.56683	258.88437	164.95636	-667.16437	300.09592	159.11124	-629.58044	306.89127	161.57568	-528.13098	303.83444	146.27101	-474.66611	-83.43130	1425.47192	-880.08301	98.98380	1078.52686	-770.95020	-7.61450	205.05524	-796.91327	52.46616	174.61311	-807.17096	-34.86592	482.32828	-560.05566	-37.11134	163.39941	-876.28003	-78.81476	141.55153	-691.97235	-2.11331	1033.33704	-771.77081	-28.10388	611.65765	-772.96033	-24.25640	565.93866	-676.97205	175.11752	159.38593	-621.95410	-78.30025	158.53593				-677.44965	217.55905	1050.87805	-755.47852	-67.87557	865.58661				-716.28979	20.11992	525.57074				-742.23749	147.47586	571.28278	-782.86749	249.79094	571.64172				-746.05231	80.40842	571.90814	
146	2.900	-288.70328	91.86575	1666.81433	-471.93781	275.42902	1430.07520	-737.67090	285.26483	877.53992	-680.55298	-4.76712	805.32898	-675.08844	218.83945	814.67072	-790.57153	253.62393	633.15430	-772.08392	-55.97232	731.48730	-723.32867	209.63527	536.20300	-813.88776	260.68762	494.98642	-663.76050	-68.23022	161.72171	-517.97162	-72.78085	143.21204	-722.67407	74.66174	218.89107	-604.47351	20.31784	166.79747	-676.89001	54.59302	160.19183	-716.76520	155.43951	219.17578	-798.72089	175.33482	183.01578	-774.73816	225.12604	202.57610	-595.74585	222.38638	173.58922	-882.54730	296.17606	144.64073	-560.36780	258.33170	164.57848	-667.21710	300.08884	158.97404	-629.61682	306.83185	161.59100	-528.08044	303.95816	146.43126	-470.68918	-83.99481	1419.84766	-881.67188	98.91958	1079.10657	-770.92944	-7.88005	204.95288	-797.12323	52.36909	174.54971	-807.95111	-35.18683	482.18533	-560.07751	-37.07397	163.40215	-876.55841	-78.91250	141.89632	-694.02472	-2.92659	1032.39832	-773.05005	-28.29823	611.42432	-774.39874	-24.24381	565.84747	-676.98071	175.26958	159.45845	-622.02582	-78.32489	158.24091				-679.44440	217.50841	1049.72180	-757.89117	-68.12669	865.37891				-717.30176	19.74939	525.96362				-743.31989	147.70117	571.52930	-784.05560	250.18507	572.09119				-747.47693	80.40997	571.66687	
147	2.920	-282.04871	91.15157	1659.16602	-467.90887	275.39554	1424.89917	-739.86243	285.20874	877.29865	-682.47607	-4.61349	805.28351	-676.92139	219.11823	814.23572	-792.00177	253.91696	632.96857	-774.42395	-56.45634	731.26630	-724.96185	210.29683	536.05896	-814.68854	260.89203	494.31122	-663.81140	-68.19613	161.70795	-517.98700	-72.62959	143.19608	-722.73193	74.84588	219.19801	-604.56659	20.36515	166.77727	-676.95947	54.48321	160.15601	-716.76520	155.43951	219.17578	-798.81348	175.39264	182.91998	-774.82617	225.16817	202.36653	-595.99066	222.56578	173.70499	-882.61292	296.24393	144.79390	-560.36780	258.33170	164.57848	-667.27246	300.30661	158.93414	-629.54535	306.99515	161.55568	-528.06482	304.02841	146.21010	-466.18762	-84.86720	1413.74219	-884.13287	99.29475	1079.98865	-771.15607	-7.91839	204.93745	-797.24481	52.32611	174.56760	-808.66620	-35.35302	482.08774	-560.09460	-37.00272	163.44391	-876.02838	-78.54763	141.55200	-695.79926	-2.70318	1031.63342	-774.53101	-28.19182	611.39929	-775.62115	-24.51974	566.32416	-677.02747	174.97981	160.01950	-622.10291	-78.33933	158.26112				-680.99921	217.29744	1048.65442	-760.03345	-67.86523	864.68005				-718.64496	19.86616	525.60486				-744.98920	147.64682	571.67566	-785.22742	250.38048	571.77222				-748.54578	80.51218	571.51794	
